<svg version="1.1" id="Layer_1" xmlns="http://www.w3.org/2000/svg" xmlns:xlink="http://www.w3.org/1999/xlink" x="0px" y="0px"
	 width="100%" viewBox="0 0 608 608" enable-background="new 0 0 608 608" xml:space="preserve">
<path fill="#000000" opacity="1.000000" stroke="none" 
	d="
M213.222961,362.294922 
	C224.092819,344.513794 238.631195,331.195312 256.625732,321.499176 
	C260.348358,319.493256 263.285187,319.479645 267.217804,321.563660 
	C294.553192,336.049683 322.037048,335.940399 349.248047,321.154785 
	C352.652405,319.304962 355.064850,319.403931 358.378296,321.183075 
	C392.857239,339.696838 412.466217,368.516144 418.035156,407.018066 
	C418.912476,413.083344 418.789673,419.305908 418.940765,425.460388 
	C419.133179,433.297668 419.036713,433.315552 411.365326,433.315186 
	C356.404236,433.312531 301.443146,433.308929 246.482040,433.306030 
	C231.992294,433.305298 217.499298,433.131805 203.014618,433.402710 
	C198.107361,433.494507 196.831360,431.722687 196.785080,427.041321 
	C196.558350,404.102356 200.910538,382.396729 213.222961,362.294922 
z"/>
<path fill="#000000" opacity="1.000000" stroke="none" 
	d="
M245.798996,248.042511 
	C246.994888,232.093582 251.686447,218.176315 262.440979,206.367004 
	C284.005676,182.687256 323.031708,179.755157 347.366302,200.732117 
	C366.772552,217.460724 373.837555,238.939056 367.801178,263.620972 
	C361.977203,287.434509 346.024292,302.451874 322.279633,308.552429 
	C286.246643,317.810150 250.103790,292.040100 246.599457,254.931137 
	C246.396317,252.779968 246.069153,250.640503 245.798996,248.042511 
z"/>
<path fill="#000000" opacity="1.000000" stroke="none" 
	d="
M128.514053,342.296570 
	C130.818787,341.073425 132.652405,340.508514 134.927017,341.781616 
	C158.233185,354.826111 181.531235,354.381775 204.764587,341.516541 
	C205.188385,341.281860 205.686081,341.171478 206.159866,341.041687 
	C206.304367,341.002045 206.484268,341.091675 206.700790,341.131958 
	C208.033981,342.527832 206.775024,343.558807 206.057404,344.534882 
	C188.583023,368.302704 180.225555,394.881561 181.109711,424.406647 
	C181.377045,433.333527 181.155441,433.339752 172.272415,433.340668 
	C143.468338,433.343628 114.663658,433.255066 85.860771,433.442291 
	C81.167709,433.472748 79.634941,432.224670 79.538666,427.322632 
	C78.905754,395.096252 90.929268,369.041840 116.739929,349.580627 
	C120.308960,346.889587 124.359024,344.836517 128.514053,342.296570 
z"/>
<path fill="#000000" opacity="1.000000" stroke="none" 
	d="
M469.593933,345.575378 
	C471.169586,344.897919 472.575989,344.580353 473.563538,343.759125 
	C479.683899,338.669647 485.160492,340.627258 491.089935,344.505127 
	C521.488037,364.385406 535.612915,392.493286 534.374573,428.611237 
	C534.280579,431.355377 533.321045,432.488525 530.551331,432.483521 
	C499.887238,432.428040 469.222931,432.384552 438.559021,432.471313 
	C434.747742,432.482086 434.674896,430.326935 434.753876,427.630157 
	C435.130493,414.773041 434.476929,402.000671 431.230774,389.485657 
	C426.915070,372.847198 419.848816,357.516174 409.276428,343.880432 
	C408.771027,343.228577 408.273895,342.562042 407.861847,341.850830 
	C407.730499,341.624146 407.887238,341.230591 407.979004,340.063446 
	C427.671570,351.319824 448.031891,353.881622 469.593933,345.575378 
z"/>
<path fill="#000000" opacity="1.000000" stroke="none" 
	d="
M479.046814,245.940781 
	C506.233490,273.717316 496.400452,317.756744 460.545013,330.215515 
	C430.149261,340.777130 397.710327,319.654144 394.505646,287.676056 
	C391.621460,258.896240 412.534119,232.888229 443.863495,232.114349 
	C457.124969,231.786758 468.975189,236.464691 479.046814,245.940781 
z"/>
<path fill="#000000" opacity="1.000000" stroke="none" 
	d="
M186.714417,235.956909 
	C207.498001,244.387711 218.876770,259.727509 219.801834,281.519165 
	C221.076828,311.553558 196.951035,332.441010 172.078766,333.543762 
	C145.121780,334.738922 124.574524,315.493103 120.436424,293.915222 
	C114.395790,262.416687 135.162506,237.229141 162.717834,233.535141 
	C170.878418,232.441147 178.607452,233.610916 186.714417,235.956909 
z"/>
</svg>